<?xml version="1.0" standalone="no"?>
<!DOCTYPE svg PUBLIC "-//W3C//DTD SVG 20010904//EN"
 "http://www.w3.org/TR/2001/REC-SVG-20010904/DTD/svg10.dtd">
<svg version="1.0" xmlns="http://www.w3.org/2000/svg"
 width="1630.000000pt" height="1724.000000pt" viewBox="0 0 1630.000000 1724.000000"
 preserveAspectRatio="xMidYMid meet">
<metadata>
Created by potrace 1.11, written by Peter Selinger 2001-2013
</metadata>
<g transform="translate(0.000000,1724.000000) scale(0.100000,-0.100000)"
fill="#34495F" stroke="none">
<path d="M4690 16444 c-88 -23 -175 -71 -217 -118 -21 -24 -57 -82 -80 -129
l-43 -87 0 -600 0 -600 -392 0 -393 0 -387 -406 -388 -406 -2 -646 -3 -647
-150 -6 c-151 -7 -200 -16 -265 -49 -44 -23 -95 -76 -111 -115 -9 -22 -11
-258 -9 -941 l2 -911 -54 -6 c-29 -4 -171 -7 -316 -7 -255 0 -266 -1 -338 -25
-215 -72 -289 -151 -344 -363 -20 -81 -20 -87 -18 -1939 l3 -1858 23 -73 c61
-197 133 -260 361 -317 53 -13 110 -25 126 -27 l30 -3 5 -880 c4 -689 8 -889
19 -920 33 -103 98 -170 196 -202 42 -15 110 -18 430 -23 l380 -5 3 -241 2
-241 321 -279 320 -279 212 -5 212 -5 5 -375 5 -375 38 -73 c51 -98 105 -155
186 -195 l66 -32 510 -5 510 -5 6 -185 c5 -177 6 -189 38 -275 98 -269 176
-360 447 -525 l98 -60 713 0 712 0 98 35 c305 110 394 196 539 518 l44 97 0
605 0 605 -200 0 -200 0 0 -566 0 -567 -52 -99 c-29 -55 -66 -112 -84 -127
-17 -16 -67 -43 -110 -62 l-79 -34 -635 -3 -634 -2 -94 62 c-104 70 -130 105
-176 238 -25 69 -26 86 -24 210 l3 135 598 3 597 2 0 200 0 200 -1260 0 -1260
0 0 330 0 330 1223 0 1222 0 309 270 309 270 254 0 253 0 0 200 0 200 -330 0
-330 0 -307 -270 -308 -269 -1485 0 -1485 0 -197 172 -198 172 0 153 0 152
210 0 210 0 0 200 0 200 -725 0 -725 0 0 815 0 815 245 0 245 0 2 662 3 661
47 -109 c119 -272 325 -554 560 -765 625 -561 1501 -787 2354 -609 867 181
1582 792 1843 1577 310 930 -54 1935 -914 2522 -321 219 -683 360 -1100 426
-155 25 -537 31 -709 11 -521 -60 -1022 -270 -1396 -584 -241 -202 -426 -431
-592 -731 -12 -22 -24 -31 -43 -31 l-25 0 0 1600 0 1600 770 0 770 0 0 -80 0
-80 285 0 285 0 0 195 0 195 -41 0 c-35 0 -40 3 -34 18 69 179 75 239 75 758
l0 454 -490 0 -490 0 0 -200 0 -200 288 -2 287 -3 0 -265 c0 -329 -3 -340 -81
-369 -53 -20 -74 -21 -569 -21 l-515 0 0 568 0 568 273 286 272 287 403 0 402
1 0 75 0 75 108 0 107 0 -3 682 c-1 431 1 689 8 698 8 13 168 15 1320 18 860
1 1317 -1 1330 -8 36 -19 40 -87 40 -750 l0 -640 200 0 201 0 -3 688 c-4 752
-2 723 -65 864 -29 66 -107 145 -203 207 l-63 41 -1386 -1 c-1178 0 -1394 -2
-1441 -15z m-2442 -6856 l2 -788 150 0 c87 0 150 -4 150 -9 0 -6 -7 -39 -15
-76 -30 -128 -47 -282 -48 -442 l-1 -163 -133 0 -133 0 0 -771 0 -770 -277 3
c-317 5 -337 8 -353 66 -15 55 -14 3598 1 3658 9 33 19 49 38 57 21 9 465 26
596 23 20 -1 20 -9 23 -788z m3097 647 c863 -131 1564 -730 1765 -1508 47
-183 63 -334 57 -527 -8 -244 -45 -421 -134 -645 -94 -233 -223 -430 -411
-627 -345 -359 -813 -589 -1342 -659 -123 -16 -427 -16 -555 0 -926 117 -1664
749 -1849 1582 -119 539 1 1091 336 1539 82 110 259 293 368 380 336 268 746
433 1194 480 120 13 444 4 571 -15z"/>
<path d="M4880 9813 c-303 -29 -528 -92 -750 -209 -448 -238 -752 -640 -837
-1107 -23 -124 -22 -361 1 -482 93 -489 404 -889 871 -1120 274 -136 468 -183
780 -192 225 -6 344 6 540 57 346 89 669 289 886 548 177 212 283 433 335 697
25 126 25 376 0 505 -60 311 -218 597 -450 818 -70 66 -218 184 -223 178 -2
-2 4 -32 14 -67 20 -77 22 -231 4 -309 -7 -30 -33 -97 -58 -149 -38 -79 -59
-108 -127 -176 -136 -136 -283 -197 -471 -199 -124 0 -184 14 -304 71 -79 38
-108 59 -176 127 -152 153 -220 349 -194 556 19 153 79 278 190 392 74 76 76
72 -31 61z"/>
<path d="M8825 16441 c-72 -21 -151 -60 -185 -92 -38 -36 -87 -110 -119 -183
l-29 -64 5 -721 6 -721 200 0 199 0 -3 686 c-4 669 -4 686 15 700 17 12 214
14 1328 14 l1308 0 17 -27 c17 -25 18 -75 21 -700 l3 -673 94 0 95 0 0 -75 0
-75 404 0 404 0 276 -287 275 -288 1 -567 0 -568 -520 0 -519 0 -54 24 c-53
23 -54 24 -65 81 -7 35 -12 158 -12 307 l0 248 290 0 290 0 0 200 0 200 -490
0 -490 0 0 -472 c0 -464 1 -475 24 -580 14 -58 32 -120 40 -137 22 -41 21 -41
-24 -41 l-40 0 0 -195 0 -195 285 0 285 0 0 80 0 80 770 0 770 0 -2 -1597 c-3
-1496 -4 -1598 -20 -1601 -12 -2 -26 14 -47 55 -111 219 -318 480 -515 653
-390 339 -827 539 -1371 627 -161 26 -621 26 -790 -1 -551 -85 -1046 -323
-1424 -682 -378 -360 -621 -827 -686 -1319 -30 -233 -13 -565 40 -776 193
-766 780 -1386 1572 -1659 629 -217 1338 -197 1941 56 560 235 1000 638 1259
1153 l63 126 0 -632 0 -633 260 0 260 0 0 -815 0 -815 -730 0 -730 0 0 -200 0
-200 205 0 205 0 -1 -152 -1 -153 -199 -172 -199 -173 -1483 0 -1484 0 -309
270 -308 270 -333 0 -333 0 0 -200 0 -200 258 0 257 0 308 -270 308 -270 1225
0 1224 0 -2 -327 -3 -328 -1260 -5 -1260 -5 -3 -197 -2 -198 602 -2 603 -3 3
-129 c2 -110 -1 -139 -19 -195 -50 -152 -87 -200 -221 -285 l-57 -36 -624 0
-625 0 -78 32 c-121 48 -140 63 -184 139 -86 147 -80 90 -80 725 l0 564 -200
0 -200 0 0 -611 0 -611 64 -133 c75 -157 125 -232 198 -301 60 -57 185 -122
331 -173 l89 -31 710 0 710 0 62 37 c110 66 239 155 283 196 80 73 163 230
218 410 22 74 25 100 25 245 l0 162 494 0 495 0 73 27 c94 35 158 97 213 208
l40 80 3 373 3 372 210 0 210 0 324 283 325 282 0 242 0 242 393 3 c386 3 393
4 452 27 85 34 147 99 177 188 l23 68 3 870 3 870 97 21 c246 55 332 118 390
288 l27 81 3 1889 c2 1870 2 1890 -18 1963 -53 194 -123 265 -329 334 l-85 29
-266 0 c-147 0 -288 3 -314 6 l-47 7 2 913 1 912 -23 43 c-13 24 -43 58 -67
76 -67 51 -127 65 -299 70 l-153 5 0 647 0 646 -388 407 -387 406 -387 1 -388
1 0 551 c0 525 -1 554 -21 632 -39 153 -91 223 -239 323 l-65 44 -1390 -1
c-1293 0 -1394 -2 -1450 -18z m5862 -6086 c19 -8 37 -25 43 -40 11 -29 14
-3652 4 -3692 -11 -40 -59 -47 -356 -50 l-278 -4 0 770 0 771 -120 0 -120 0 0
124 c0 68 -5 170 -11 227 -10 98 -43 292 -55 324 -5 13 15 15 140 15 l146 0 0
788 0 787 287 -3 c214 -3 296 -7 320 -17z m-3022 -120 c486 -76 919 -290 1245
-615 286 -285 465 -613 547 -1000 25 -114 27 -145 27 -355 1 -258 -10 -344
-70 -542 -62 -204 -154 -392 -282 -573 -81 -116 -334 -371 -450 -455 -617
-448 -1404 -562 -2133 -309 -531 184 -985 582 -1214 1066 -245 518 -243 1101
5 1617 305 631 950 1081 1680 1170 47 6 101 13 120 15 75 9 430 -4 525 -19z"/>
<path d="M11145 9809 c-604 -56 -1143 -407 -1394 -906 -107 -214 -152 -405
-153 -643 0 -402 147 -746 446 -1046 202 -201 429 -340 701 -427 185 -59 305
-79 525 -84 214 -6 341 7 522 53 627 158 1103 628 1229 1214 33 153 34 421 1
569 -68 304 -196 536 -422 761 -120 120 -261 232 -247 198 23 -62 31 -117 31
-223 0 -104 -4 -130 -28 -200 -37 -109 -77 -175 -153 -256 -183 -194 -443
-262 -693 -183 -105 33 -193 87 -275 169 -129 130 -185 259 -193 443 -9 208
55 373 200 514 l59 58 -33 -1 c-18 -1 -73 -5 -123 -10z"/>
<path d="M5320 14922 l0 -519 451 -479 451 -479 612 -5 611 -5 3 -412 c1 -227
-1 -413 -5 -413 -5 0 -44 48 -88 105 l-80 105 -770 2 -770 3 -3 288 -2 287
-200 0 -200 0 0 -490 0 -490 874 0 873 0 69 -89 69 -90 318 0 317 -1 0 800 0
800 -724 0 -725 0 -340 361 -341 362 0 239 0 238 333 -2 332 -3 3 -197 2 -198
200 0 200 0 0 400 0 400 -735 0 -735 0 0 -518z"/>
<path d="M9540 15040 l0 -400 200 0 200 0 0 200 0 200 333 -2 332 -3 2 -235 3
-235 -342 -362 -342 -363 -723 0 -723 0 0 -800 0 -800 314 0 314 0 71 90 71
90 870 0 870 0 0 490 0 490 -200 0 -200 0 0 -290 0 -290 -769 0 -768 0 -82
-105 c-45 -58 -84 -105 -87 -105 -2 0 -4 187 -4 415 l0 415 610 0 609 0 455
483 456 482 0 518 0 517 -735 0 -735 0 0 -400z"/>
</g>
</svg>
